<svg width="1510" height="3111" viewBox="0 0 1510 3111" fill="none" xmlns="http://www.w3.org/2000/svg">
<g clip-path="url(#clip0_899_427)">
<path d="M1242.2 772.395C1273.57 880.03 1267.8 929.989 1334.33 1072.78C1295.94 1000.54 1211.03 830.489 1178.48 728.152C1137.8 600.232 1170.05 650.089 1146.51 545.85C1122.97 441.61 1092.83 448.018 1079.37 437.184C1065.9 426.349 975.667 489.594 955.496 429.224C935.324 368.854 962.289 292.012 1100.33 426.588C1238.38 561.164 1210.84 664.76 1242.2 772.395Z" fill="#3B3B5A"/>
<path d="M1055.54 591.827C1075 581.988 1048.48 507.188 1342.57 1159.76L1510.42 1399.82C1452.25 1331.21 1334.36 1190.96 1328.21 1178.78C1320.52 1163.55 1165.54 824.369 1116 706.81C1066.45 589.25 1079.67 697.238 1070.18 713.796C1060.69 730.354 905.866 589.555 839.507 381.996C773.147 174.438 753.919 150.344 758.472 150.983C762.115 151.494 796.662 125.801 813.481 112.891C831.298 196.502 876.904 386.617 916.791 478.186C966.649 592.647 1036.07 601.666 1055.54 591.827Z" fill="#3B3B5A"/>
<path d="M1131.55 883.499C1119.52 914.763 1163.04 1052.56 1422.55 1422.18C1436.44 1444.07 1432.36 1455.15 1304.94 1324.32C1145.68 1160.77 1255.36 1322.91 1073.38 976.797C1032.99 899.97 1002.23 844.782 978.728 805.172C977.739 803.532 976.747 801.868 975.753 800.178C896.503 667.602 902.944 718.686 895.908 701.905C886.753 680.071 795.673 502.647 624.781 134.755C488.067 -159.559 659.725 96.0223 762.644 260.602C764.741 264.442 795.973 346.077 904.118 641.892C929.029 710.035 953.085 761.646 975.753 800.178C976.732 801.814 977.723 803.479 978.728 805.172C1048.27 920.497 1104.39 912.843 1131.55 883.499C1132.77 880.327 1134.56 878.252 1136.75 877.142C1135.16 879.342 1133.42 881.472 1131.55 883.499Z" fill="#3B3B5A"/>
<path d="M984.526 924.676C1021.88 1019.97 1141.91 1257.65 1323.17 1445.94C1267.97 1417 1135.96 1312.1 1049.58 1124.07C941.604 889.035 859.405 820.32 730.173 609.256C626.788 440.405 507.409 218.087 460.644 128.034L575.572 224.31C587.001 234.215 649.274 332.012 806.935 643.965C964.596 955.918 991.021 961.086 984.526 924.676Z" fill="#3B3B5A"/>
<path d="M1076.84 1216.14C1165.02 1390.62 1088.56 1370.46 1094.48 1582.1L1091.52 1576.25C1069.84 1473.52 1004.58 1235.9 917.013 1107.28C829.445 978.65 767.354 796.278 747.254 721.17C725.117 696.587 674.198 637.252 647.627 596.581C621.056 555.91 473.695 218.955 403.336 55.5607C402.602 47.6006 436.868 105.356 579.794 400.058C722.721 694.76 753.353 711.229 750.804 682.625C784.615 774.324 867.011 982.304 926.105 1080.63C999.973 1203.54 988.662 1041.66 1076.84 1216.14Z" fill="#3B3B5A"/>
<path d="M315.431 1321.94C312.835 1391.74 246.115 1388.97 0 819.492C97.2106 1062.75 300.905 1530.92 337.999 1457.56C384.366 1365.86 454.111 1718.31 588.216 2081.39C722.321 2444.48 866.919 2550.27 909.624 2512.35C952.328 2474.44 866.992 2274.93 858.141 2391.34C851.061 2484.47 746.54 2293.35 695.165 2186.16C697.176 2161.15 654.502 2005.63 467.716 1583.67C280.93 1161.71 288.365 1233.37 315.431 1321.94Z" fill="#3B3B5A"/>
<path d="M383.415 2039.69C374.178 1942.72 317.06 1689.58 162.486 1452.77C144.795 1322.15 149.25 1182.58 308.602 1669.34C507.792 2277.78 523.03 2145.34 519.83 2097.29C516.631 2049.24 447.052 2014.78 429.031 1891.12C411.011 1767.46 483.339 1851.15 555.696 2146.23C613.582 2382.3 464.961 2173.56 383.415 2039.69Z" fill="#3B3B5A"/>
<path d="M213.148 1699.89C267.052 1799.43 281.601 1796.26 282.188 1771.45C280.668 1760.27 279.744 1750.96 279.314 1743.74C281.143 1753.43 282.374 1763.54 282.188 1771.45C290.326 1831.31 315.558 1944.62 373.578 2075.54C442.431 2230.9 557.702 2312.28 606.731 2333.56C610.973 2362.69 638.323 2432.24 713.792 2477.4C789.262 2522.57 807.347 2563.45 806.956 2578.24C784.357 2629.54 702.389 2668.24 555.304 2412.68C371.447 2093.24 303.182 1996.05 258.165 1847.97C222.151 1729.51 170.823 1698.74 149.661 1698.16L213.148 1699.89Z" fill="#3B3B5A"/>
</g>
<defs>
<clipPath id="clip0_899_427">
<rect width="1510" height="3111" fill="white"/>
</clipPath>
</defs>
</svg>
